<svg xmlns="http://www.w3.org/2000/svg" viewBox="0 0 1298 133.7" fill="#fff"><defs><linearGradient id="b" x1="-310.4" x2="-309.1" y1="656.6" y2="656.6" gradientTransform="matrix(0 99.86 99.86 0 -65133 30999)" gradientUnits="userSpaceOnUse"><stop offset="0" stop-color="#f8ad42"/><stop offset=".3" stop-color="#f8ad42"/><stop offset=".7" stop-color="#f79b40"/><stop offset="1" stop-color="#f68d3f"/></linearGradient><clipPath id="a"><path fill="none" d="m437 0-77 134h80L517 0h-80z"/></clipPath></defs><path d="M278 134V44h112v26h-68v6h50v25h-50v6h68v27H278zM97 74v60H38V74H0V44h135v30H97zM215 134v-30h-18v30h-59V44h59v30h18V44h60v90h-60zM565 134H459V0h105c61 0 87 23 89 63v4c-1 42-28 67-88 67m19-68v-1c0-19-13-27-33-27h-27v57h27c23 0 33-9 33-27ZM852 0h68v134h-68z"/><path d="M1056 134h-60L919 0h71l37 70 38-70h68l-77 134zM854 134l-37-47c13-7 21-19 22-39v-2c-2-30-23-46-65-46H652v134h68V95h31l29 39ZM720 67V38h36c10 0 18 3 20 12a15 15 0 0 1 0 4c-2 10-9 13-19 13Z"/><path d="M1132 134V0h166v39h-100v9h74v37h-74v9h100v40h-166z"/><g clip-path="url(#a)"><path fill="url(#b)" d="M360 0h157v134H360z"/></g></svg>